<svg width="184" height="44" viewBox="0 0 184 44" fill="none" xmlns="http://www.w3.org/2000/svg">
<path fill-rule="evenodd" clip-rule="evenodd" d="M35.0119 17.506C35.0119 27.1743 27.075 35.012 17.2843 35.012C10.2019 35.012 4.08949 30.9106 1.24986 24.9818C3.1741 26.1999 5.52149 26.9153 8.05502 26.9153C8.90944 26.9153 9.74269 26.834 10.5457 26.6794L10.5455 26.6784C10.3557 26.6905 10.1645 26.6966 9.97197 26.6966C4.46471 26.6966 0.000202656 21.7 0.000202656 15.5365C0.000202656 15.3708 0.00343017 15.2059 0.00981869 15.0419C1.60784 20.234 7.2479 24.0707 13.9604 24.0707C21.9153 24.0707 28.3641 18.6823 28.3641 12.0354C28.3641 5.85299 22.7853 0.759369 15.6046 0.0775569C16.1575 0.0262402 16.7178 0 17.2843 0C27.075 0 35.0119 7.83769 35.0119 17.506Z" fill="white"/>
<path d="M55.1849 33.8494C53.7888 33.8494 52.528 33.6642 51.4025 33.2938C50.277 32.9377 49.3083 32.4177 48.4962 31.7339C47.6699 31.05 47.036 30.238 46.5943 29.2977C46.167 28.3575 45.9533 27.3175 45.9533 26.1778C45.9533 25.2232 46.1028 24.3257 46.402 23.4852C46.7154 22.6304 47.15 21.8896 47.7056 21.2627C48.2612 20.6359 48.9094 20.1515 49.6502 19.8096C50.391 19.4535 51.1746 19.2754 52.0009 19.2754C53.0266 19.2754 53.8885 19.5318 54.5866 20.0447C55.2846 20.5576 55.7192 21.2627 55.8901 22.1603C54.3658 22.1603 53.1548 22.5663 52.2573 23.3783C51.8299 23.763 51.4951 24.2331 51.2529 24.7887C51.025 25.3443 50.911 25.9569 50.911 26.6265C50.911 27.9087 51.2814 28.9273 52.0222 29.6824C52.7773 30.4232 53.7888 30.7936 55.0567 30.7936C55.8118 30.7936 56.517 30.6582 57.1723 30.3876C57.8276 30.1026 58.3975 29.718 58.8819 29.2336C59.3662 28.7492 59.7366 28.1723 59.9931 27.5027C60.2638 26.8188 60.3991 26.0923 60.3991 25.323C60.3991 23.8983 59.9147 22.4167 58.946 20.8781C58.5613 20.2797 58.1339 19.6956 57.6638 19.1258C57.2079 18.5417 56.5668 17.7724 55.7405 16.8179C54.9997 15.9631 54.38 15.2223 53.8814 14.5954C53.3828 13.9686 52.934 13.3275 52.5351 12.6722C51.5663 11.0908 51.082 9.53796 51.082 8.0136C51.082 6.87389 51.3241 5.81965 51.8085 4.8509C52.2929 3.8679 52.9839 3.01311 53.8814 2.28655C54.7789 1.55998 55.826 0.997248 57.0227 0.598349C58.2194 0.19945 59.5087 0 60.8906 0C63.2413 0 65.1289 0.55561 66.5535 1.66683C67.2374 2.20819 67.7574 2.8564 68.1135 3.61146C68.4839 4.36652 68.6691 5.20706 68.6691 6.13307C68.6691 7.34402 68.3628 8.33414 67.7502 9.10345C67.4653 9.47386 67.1092 9.75878 66.6818 9.95823C66.2686 10.1577 65.827 10.2574 65.3568 10.2574C64.2599 10.2574 63.3695 9.80152 62.6856 8.88975C63.2413 8.49085 63.6758 7.96374 63.9892 7.3084C64.3169 6.63882 64.4807 5.9265 64.4807 5.17144C64.4807 4.23118 64.2029 3.49037 63.6473 2.949C63.0917 2.39339 62.3295 2.11559 61.3607 2.11559C60.7766 2.11559 60.2353 2.22244 59.7366 2.43613C59.2523 2.64983 58.8391 2.95613 58.4972 3.35503C58.141 3.75393 57.8632 4.22406 57.6638 4.76542C57.4786 5.30678 57.386 5.89801 57.386 6.5391C57.386 7.45087 57.5997 8.32702 58.0271 9.16756C58.4545 10.0081 59.0671 10.8842 59.8649 11.796C60.5772 12.6366 61.3465 13.47 62.1728 14.2963C64.096 16.2908 65.4566 18.2354 66.2544 20.1302C66.7245 21.2556 66.9596 22.4951 66.9596 23.8485C66.9596 25.2731 66.6675 26.598 66.0834 27.8232C65.4993 29.0342 64.6659 30.0884 63.5832 30.9859C62.5004 31.8977 61.2396 32.6029 59.8008 33.1015C58.3619 33.6001 56.8233 33.8494 55.1849 33.8494Z" fill="white"/>
<path d="M73.0072 33.3152C71.611 33.3152 70.5069 32.9021 69.6949 32.0758C68.7831 31.164 68.3272 29.832 68.3272 28.0797C68.3272 27.2534 68.4412 26.2989 68.6691 25.2161L70.4651 16.7274C71.1497 13.4914 74.0059 11.1763 77.3135 11.1763H77.9435L74.8022 26.0495C74.7167 26.4057 74.674 26.7761 74.674 27.1608C74.674 27.7164 74.7666 28.158 74.9518 28.4857C75.1655 28.8846 75.5074 29.084 75.9775 29.084C76.7753 29.084 77.4948 28.7207 78.1359 27.9942C78.6487 27.3816 79.0975 26.4556 79.4822 25.2161L81.1477 17.3438C81.9083 13.7485 85.0817 11.1763 88.7566 11.1763L85.6152 26.0495C85.4585 26.7904 85.3802 27.3175 85.3802 27.6309C85.3802 28.0868 85.5013 28.4429 85.7434 28.6994C85.9856 28.9558 86.3632 29.084 86.876 29.084C87.5599 29.084 88.2294 28.8418 88.8848 28.3575C89.5401 27.8731 90.1598 27.2035 90.7439 26.3487C91.2853 25.5652 91.7839 24.6534 92.2398 23.6134C92.7099 22.5734 93.1088 21.4978 93.4365 20.3866C93.7499 19.3039 93.9921 18.2496 94.1631 17.2239C94.3483 16.1839 94.4409 15.265 94.4409 14.4672C94.3839 14.5954 94.1773 14.7023 93.8212 14.7878C93.5932 14.859 93.3368 14.8946 93.0518 14.8946C92.5532 14.8946 92.1614 14.6524 91.8765 14.168C91.6058 13.7549 91.4705 13.2563 91.4705 12.6722C91.4705 11.9599 91.6984 11.39 92.1543 10.9626C92.6102 10.521 93.2869 10.3001 94.1844 10.3001C95.1532 10.3001 95.8726 10.6919 96.3428 11.4755C96.7417 12.1308 96.9411 13.007 96.9411 14.1039C96.9411 15.3149 96.8343 16.6255 96.6206 18.0359C96.4211 19.4463 96.1148 20.8354 95.7017 22.203C94.7044 25.4512 93.3581 28.0084 91.6628 29.8747C89.6113 32.1684 87.2108 33.3152 84.4613 33.3152C83.0224 33.3152 81.8542 33.0089 80.9567 32.3963C80.0591 31.7837 79.4822 30.8648 79.2257 29.6396C78.2997 31.05 77.217 32.0544 75.9775 32.6527C75.0943 33.0944 74.1041 33.3152 73.0072 33.3152Z" fill="white"/>
<path d="M104.912 8.80427C104.442 8.80427 103.993 8.7188 103.566 8.54784C103.138 8.36264 102.768 8.11332 102.454 7.7999C102.141 7.50073 101.892 7.13745 101.707 6.71005C101.536 6.28266 101.45 5.8339 101.45 5.36377C101.45 4.89364 101.536 4.44488 101.707 4.01748C101.892 3.59009 102.141 3.21256 102.454 2.8849C102.768 2.55723 103.138 2.30792 103.566 2.13696C103.993 1.95176 104.442 1.85915 104.912 1.85915C105.382 1.85915 105.831 1.95176 106.258 2.13696C106.686 2.30792 107.063 2.55723 107.391 2.8849C107.719 3.21256 107.968 3.59009 108.139 4.01748C108.324 4.44488 108.417 4.89364 108.417 5.36377C108.417 5.8339 108.324 6.28266 108.139 6.71005C107.968 7.13745 107.719 7.50073 107.391 7.7999C107.063 8.11332 106.686 8.36264 106.258 8.54784C105.831 8.7188 105.382 8.80427 104.912 8.80427ZM101.942 33.3152C100.545 33.3152 99.4414 32.9021 98.6293 32.0758C97.7175 31.164 97.2617 29.832 97.2617 28.0797C97.2617 27.2534 97.3756 26.2989 97.6036 25.2161L99.2691 17.3438C100.03 13.7485 103.203 11.1763 106.878 11.1763L103.737 26.0495C103.623 26.4199 103.566 26.8901 103.566 27.4599C103.566 28.0583 103.701 28.4785 103.972 28.7207C104.257 28.9629 104.713 29.084 105.339 29.084C105.767 29.084 106.18 28.9914 106.579 28.8062C106.992 28.6068 107.369 28.3361 107.711 27.9942C108.409 27.2961 108.937 26.3701 109.293 25.2161H111.131C110.347 27.4243 109.364 29.1837 108.182 30.4944C107.184 31.5629 106.059 32.3322 104.805 32.8023C103.893 33.1442 102.939 33.3152 101.942 33.3152Z" fill="white"/>
<path d="M125.106 33.3152C123.297 33.3152 121.958 32.8023 121.089 31.7766C120.334 30.8933 119.956 29.7607 119.956 28.3788C119.956 27.7235 120.035 26.9613 120.191 26.0923C120.362 25.2232 120.612 24.1049 120.939 22.7373C121.267 21.3411 121.509 20.2299 121.666 19.4036C121.837 18.5631 121.922 17.8365 121.922 17.2239C121.922 15.728 121.395 14.9801 120.341 14.9801C119.6 14.9801 118.916 15.3719 118.289 16.1554C117.762 16.825 117.306 17.7795 116.922 19.0189L113.951 33.0588H107.647L111.277 15.9324C111.864 13.1597 114.312 11.1763 117.146 11.1763H118.589L118.118 13.4415C118.973 12.487 119.892 11.8174 120.875 11.4327C121.602 11.1478 122.385 11.0053 123.226 11.0053C124.707 11.0053 125.876 11.39 126.73 12.1593C127.642 12.9998 128.098 14.2606 128.098 15.9417C128.098 16.9532 127.913 18.271 127.542 19.8951C127.443 20.3652 127.279 21.0704 127.051 22.0107C126.638 23.592 126.339 24.8528 126.153 25.7931C126.039 26.3915 125.982 26.8758 125.982 27.2462C125.982 27.8303 126.111 28.2862 126.367 28.6139C126.638 28.9273 127.094 29.084 127.735 29.084C128.604 29.084 129.337 28.7279 129.936 28.0155C130.392 27.4742 130.883 26.541 131.41 25.2161H133.248C132.165 28.4216 130.798 30.6654 129.145 31.9475C127.977 32.8593 126.631 33.3152 125.106 33.3152Z" fill="white"/>
<path d="M139.146 44C138.462 44 137.821 43.9074 137.223 43.7222C136.639 43.5512 136.133 43.2877 135.706 42.9315C135.25 42.5754 134.894 42.1266 134.637 41.5852C134.381 41.0581 134.252 40.4455 134.252 39.7475C134.252 38.0949 135.029 36.6774 136.582 35.4949C137.75 34.6259 139.353 33.8708 141.39 33.2297L141.924 30.9218C140.428 32.5174 138.676 33.3152 136.667 33.3152C135 33.3152 133.654 32.7952 132.628 31.7552C131.432 30.53 130.833 28.7065 130.833 26.2846C130.833 25.2589 130.94 24.1761 131.154 23.0364C131.353 21.8967 131.652 20.7712 132.051 19.66C132.963 17.1527 134.21 15.1297 135.791 13.5911C137.615 11.8388 139.716 10.9626 142.095 10.9626C143.278 10.9626 144.161 11.1692 144.745 11.5823C145.343 11.9812 145.642 12.5155 145.642 13.185V13.4415C145.916 12.1222 147.079 11.1763 148.426 11.1763H152.417L148.079 31.4774C149.46 31.0215 150.565 30.3377 151.391 29.4259C152.288 28.4429 153.022 27.0397 153.592 25.2161H155.43C154.646 27.809 153.478 29.8106 151.925 31.221C150.785 32.2467 149.375 32.9733 147.694 33.4007L147.031 36.5634C146.476 39.3557 145.365 41.3787 143.698 42.6323C142.487 43.5441 140.97 44 139.146 44ZM139.509 29.084C140.136 29.084 140.799 28.792 141.497 28.2079C142.252 27.5525 142.758 26.7049 143.014 25.6649L145.236 15.3006C145.236 15.1582 145.201 14.9943 145.13 14.8091C145.073 14.6239 144.987 14.453 144.873 14.2963C144.531 13.8831 144.054 13.6765 143.441 13.6765C142.857 13.6765 142.287 13.8689 141.732 14.2535C141.19 14.6382 140.678 15.1724 140.193 15.8562C139.338 17.0957 138.633 18.7126 138.078 20.7071C137.821 21.5904 137.629 22.4666 137.501 23.3356C137.372 24.1904 137.308 24.9668 137.308 25.6649C137.308 27.118 137.579 28.101 138.12 28.6139C138.306 28.8133 138.512 28.9416 138.74 28.9985C138.968 29.0555 139.224 29.084 139.509 29.084ZM138.142 40.5809C138.598 40.5809 139.068 40.2603 139.552 39.6192C140.036 38.9924 140.414 38.0165 140.685 36.6916L140.941 35.4308C139.616 35.9294 138.626 36.4352 137.971 36.948C137.102 37.6034 136.667 38.3371 136.667 39.1491C136.667 39.5338 136.788 39.8543 137.03 40.1107C137.301 40.4242 137.672 40.5809 138.142 40.5809Z" fill="white"/>
<path d="M160.9 8.80427C160.43 8.80427 159.981 8.7188 159.554 8.54784C159.127 8.36264 158.756 8.11332 158.443 7.7999C158.129 7.50073 157.88 7.13745 157.695 6.71005C157.524 6.28266 157.438 5.8339 157.438 5.36377C157.438 4.89364 157.524 4.44488 157.695 4.01748C157.88 3.59009 158.129 3.21256 158.443 2.8849C158.756 2.55723 159.127 2.30792 159.554 2.13696C159.981 1.95176 160.43 1.85915 160.9 1.85915C161.37 1.85915 161.819 1.95176 162.247 2.13696C162.674 2.30792 163.052 2.55723 163.379 2.8849C163.707 3.21256 163.956 3.59009 164.127 4.01748C164.312 4.44488 164.405 4.89364 164.405 5.36377C164.405 5.8339 164.312 6.28266 164.127 6.71005C163.956 7.13745 163.707 7.50073 163.379 7.7999C163.052 8.11332 162.674 8.36264 162.247 8.54784C161.819 8.7188 161.37 8.80427 160.9 8.80427ZM157.93 33.3152C156.534 33.3152 155.43 32.9021 154.618 32.0758C153.706 31.164 153.25 29.832 153.25 28.0797C153.25 27.2534 153.364 26.2989 153.592 25.2161L155.723 15.1414C156.212 12.83 158.253 11.1763 160.615 11.1763H162.866L159.725 26.0495C159.611 26.4199 159.554 26.8901 159.554 27.4599C159.554 28.0583 159.689 28.4785 159.96 28.7207C160.245 28.9629 160.701 29.084 161.328 29.084C161.755 29.084 162.168 28.9914 162.567 28.8062C162.98 28.6068 163.358 28.3361 163.7 27.9942C164.398 27.2961 164.925 26.3701 165.281 25.2161H167.119C166.335 27.4243 165.352 29.1837 164.17 30.4944C163.173 31.5629 162.047 32.3322 160.793 32.8023C159.882 33.1442 158.927 33.3152 157.93 33.3152Z" fill="white"/>
<path d="M171.564 33.3152C169.413 33.3152 167.753 32.7738 166.585 31.6911C165.345 30.5372 164.725 28.7635 164.725 26.3701C164.725 25.4726 164.818 24.4753 165.003 23.3783C165.174 22.2814 165.438 21.1844 165.794 20.0874C166.193 18.8622 166.699 17.7011 167.311 16.6042C167.938 15.5072 168.665 14.5384 169.491 13.6979C171.4 11.7604 173.751 10.7916 176.543 10.7916C178.324 10.7916 179.62 11.219 180.432 12.0738C181.059 12.7434 181.372 13.7122 181.372 14.9801C181.372 16.2195 181.102 17.3877 180.56 18.4847C180.019 19.5674 179.271 20.5291 178.317 21.3696C177.362 22.1959 176.279 22.8583 175.068 23.357C173.857 23.8413 172.604 24.1263 171.307 24.2118C171.236 24.9526 171.2 25.5367 171.2 25.9641C171.2 27.3887 171.471 28.3717 172.013 28.9131C172.483 29.3974 173.266 29.6396 174.363 29.6396C175.945 29.6396 177.391 29.2122 178.701 28.3575C179.257 28.0013 179.791 27.581 180.304 27.0966C180.817 26.598 181.415 25.9712 182.099 25.2161H183.595C182.213 27.5525 180.624 29.4117 178.829 30.7936C176.621 32.4747 174.199 33.3152 171.564 33.3152ZM171.649 22.1175C172.461 22.0605 173.252 21.8255 174.021 21.4123C174.791 20.9992 175.474 20.4578 176.073 19.7882C176.671 19.1044 177.141 18.3422 177.483 17.5017C177.825 16.6469 177.996 15.7779 177.996 14.8946C177.996 14.3105 177.911 13.8689 177.74 13.5697C177.583 13.2563 177.305 13.0996 176.906 13.0996C176.379 13.0996 175.845 13.356 175.303 13.8689C174.776 14.3817 174.263 15.0869 173.765 15.9845C173.309 16.825 172.896 17.7795 172.525 18.848C172.155 19.9165 171.863 21.0063 171.649 22.1175Z" fill="white"/>
</svg>
